<?xml version="1.0" encoding="iso-8859-1"?>
<!-- Generator: Adobe Illustrator 19.0.0, SVG Export Plug-In . SVG Version: 6.00 Build 0)  -->
<svg version="1.1" xmlns="http://www.w3.org/2000/svg" xmlns:xlink="http://www.w3.org/1999/xlink" x="0px" y="0px"
	 viewBox="0 0 128 128" style="enable-background:new 0 0 128 128;" xml:space="preserve">
<g id="_x39_">
	<polygon id="XMLID_126_" style="fill:#8C1929;" points="30.606,46.061 96.352,46.061 62.721,78.722 	"/>
	<circle id="XMLID_110_" style="fill:#EC2130;" cx="98.563" cy="16.872" r="9.098"/>
	<path id="XMLID_117_" d="M114.495,1.268c-0.556-1.127-1.924-1.589-3.047-1.032c-0.282,0.139-4.967,2.493-8.872,6.816
		c-1.239-0.508-2.593-0.793-4.013-0.793c-5.853,0-10.614,4.762-10.614,10.614c0,4.922,3.373,9.06,7.926,10.256H17.062
		c-1.538,0-2.913,0.918-3.502,2.34c-0.589,1.422-0.267,3.043,0.822,4.131l46.065,46.064v43.788h-20.47
		c-1.256,0-2.274,1.019-2.274,2.274S38.721,128,39.977,128h45.488c1.256,0,2.274-1.019,2.274-2.274s-1.018-2.274-2.274-2.274h-20.47
		V79.663l46.065-46.064c1.088-1.088,1.41-2.71,0.822-4.131c-0.589-1.422-1.963-2.34-3.503-2.34h-7.128
		c4.553-1.195,7.926-5.334,7.926-10.256c0-2.775-1.08-5.297-2.83-7.191c3.237-3.396,7.042-5.331,7.117-5.369
		C114.589,3.756,115.05,2.393,114.495,1.268z M62.721,75.505L34.793,47.577H90.65L62.721,75.505z M93.682,44.544H31.76
		L18.893,31.677h87.657L93.682,44.544z M106.145,16.872c0,4.18-3.401,7.581-7.581,7.581s-7.581-3.401-7.581-7.581
		s3.401-7.581,7.581-7.581c0.697,0,1.358,0.125,2,0.302c-0.922,1.342-1.723,2.82-2.301,4.432c-0.423,1.182,0.191,2.485,1.373,2.908
		c0.254,0.09,0.513,0.133,0.768,0.133c0.933,0,1.808-0.577,2.141-1.507c0.45-1.256,1.093-2.419,1.838-3.487
		C105.466,13.383,106.145,15.042,106.145,16.872z"/>
</g>
<g id="Layer_1">
</g>
</svg>
